Coordinates
version=1
nRows=32
nColumns=38
inDegrees=no

Units are S.I. units (second, meters, Newtons, ...)
If the header above contains a line with 'inDegrees', this indicates whether rotational values are in degrees (yes) or radians (no).

endheader
time	pelvis_tilt	pelvis_list	pelvis_rotation	pelvis_tx	pelvis_ty	pelvis_tz	hip_flexion_r	hip_adduction_r	hip_rotation_r	knee_angle_r	ankle_angle_r	subtalar_angle_r	mtp_angle_r	hip_flexion_l	hip_adduction_l	hip_rotation_l	knee_angle_l	ankle_angle_l	subtalar_angle_l	mtp_angle_l	lumbar_extension	lumbar_bending	lumbar_rotation	arm_flex_r	arm_add_r	arm_rot_r	elbow_flex_r	pro_sup_r	wrist_flex_r	wrist_dev_r	arm_flex_l	arm_add_l	arm_rot_l	elbow_flex_l	pro_sup_l	wrist_flex_l	wrist_dev_l
3.99	-3.13673	1.56142	-1.54685	0.579407	0.710318	1.03391	0.493744	-0.100838	-0.0954903	0.765242	-0.14735	0	0	-0.1764	0.0735305	-0.151658	0	-0.405	0	0	-0.257702	-0.0778709	-0.0974079	0.954604	-0.319635	0.8426	1.06248	1.5708	0	0	0.831986	-0.291273	0.710619	1.14255	1.5708	0	0
4	3.12595	1.56411	-1.52553	0.579033	0.716105	1.03313	0.498944	-0.100959	-0.104699	0.731504	-0.14716	0	0	-0.182058	0.073606	-0.152293	0	-0.403205	0	0	-0.253762	-0.0750591	-0.100346	0.957672	-0.318728	0.848565	1.06139	1.5708	0	0	0.828149	-0.292564	0.706041	1.14511	1.5708	0	0
4.01	3.13214	1.56671	-1.53056	0.578667	0.72201	1.0323	0.503029	-0.101397	-0.113817	0.697254	-0.145987	0	0	-0.187841	0.0737995	-0.152712	0	-0.401365	0	0	-0.249602	-0.0725456	-0.103746	0.960575	-0.317755	0.855019	1.0604	1.5708	0	0	0.823825	-0.293997	0.701127	1.14791	1.5708	0	0
4.02	0	1.5708	1.60295	0.578348	0.728046	1.03135	0.507677	-0.1022	-0.122498	0.664675	-0.144325	0	0	-0.192546	0.074427	-0.152768	0	-0.401183	0	0	-0.244123	-0.0726056	-0.103885	0.95824	-0.320625	0.854306	1.06363	1.5708	0	0	0.82343	-0.292907	0.703564	1.1471	1.5708	0	0
4.03	-0.330577	1.56908	1.93578	0.577936	0.734132	1.03043	0.509469	-0.102748	-0.13222	0.630805	-0.14156	0	0	-0.198343	0.0743177	-0.151851	0	-0.396218	0	0	-0.239853	-0.0681976	-0.110711	0.964035	-0.317364	0.866466	1.06067	1.5708	0	0	0.814885	-0.296516	0.692367	1.15327	1.5708	0	0
4.04	-0.231786	1.56618	1.83948	0.577594	0.740327	1.0294	0.512173	-0.103821	-0.141932	0.599838	-0.139016	0	0	-0.203111	0.0744784	-0.150984	0	-0.392698	0	0	-0.234713	-0.0660459	-0.114232	0.964092	-0.317716	0.870061	1.06266	1.5708	0	0	0.810344	-0.297651	0.688368	1.15636	1.5708	0	0
4.05	-0.248593	1.56336	1.85892	0.577322	0.746613	1.0283	0.51478	-0.105152	-0.151855	0.571556	-0.136445	0	0	-0.2077	0.0746595	-0.150582	0	-0.389693	0	0	-0.229157	-0.0640599	-0.11753	0.963841	-0.318089	0.873611	1.06449	1.5708	0	0	0.805935	-0.298772	0.685047	1.15874	1.5708	0	0
4.06	-0.278197	1.56006	1.89135	0.577082	0.753023	1.02711	0.51766	-0.106744	-0.160613	0.545748	-0.133731	0	0	-0.21211	0.075098	-0.149774	0	-0.389531	0	0	-0.222602	-0.063498	-0.118226	0.960067	-0.321117	0.872263	1.06876	1.5708	0	0	0.804701	-0.297865	0.687744	1.15768	1.5708	0	0
4.07	-0.258617	1.55775	1.87513	0.57681	0.759519	1.02596	0.51836	-0.107648	-0.169053	0.519525	-0.130356	0	0	-0.217535	0.0745528	-0.148168	0	-0.386124	0	0	-0.216681	-0.0601623	-0.121702	0.960149	-0.32157	0.876997	1.07019	1.5708	0	0	0.80014	-0.298858	0.685077	1.15921	1.5708	0	0
4.08	-0.259725	1.55587	1.87958	0.576601	0.766068	1.02483	0.519194	-0.108792	-0.176225	0.498346	-0.127394	0	0	-0.223336	0.0740147	-0.146769	0	-0.382963	0	0	-0.211524	-0.057164	-0.124819	0.959865	-0.322438	0.880401	1.0725	1.5708	0	0	0.796165	-0.299705	0.682594	1.16094	1.5708	0	0
4.09	-0.248246	1.55406	1.87171	0.57642	0.772717	1.0237	0.519327	-0.109624	-0.181669	0.478646	-0.125077	0	0	-0.229023	0.0731162	-0.145056	0	-0.37943	0	0	-0.206281	-0.0540549	-0.128142	0.959479	-0.323529	0.883989	1.07516	1.5708	0	0	0.792021	-0.300475	0.679925	1.16299	1.5708	0	0
4.1	-0.236713	1.55213	1.86404	0.576289	0.779468	1.02252	0.518637	-0.109981	-0.182844	0.460338	-0.124186	0	0	-0.234418	0.0720413	-0.143037	0	-0.375606	0	0	-0.20079	-0.0512388	-0.131753	0.958801	-0.32469	0.887523	1.07812	1.5708	0	0	0.78742	-0.30128	0.67677	1.16558	1.5708	0	0
4.11	-0.220948	1.55032	1.85215	0.576216	0.786302	1.0213	0.517481	-0.109753	-0.179924	0.444912	-0.124906	0	0	-0.239734	0.0706409	-0.141123	0	-0.371434	0	0	-0.195509	-0.0485424	-0.135452	0.95804	-0.325856	0.890868	1.0815	1.5708	0	0	0.782123	-0.302041	0.672652	1.16895	1.5708	0	0
4.12	-0.202727	1.54872	1.83775	0.576204	0.793224	1.02006	0.5161	-0.108942	-0.172997	0.433273	-0.126578	0	0	-0.245121	0.0689633	-0.139347	0	-0.366991	0	0	-0.19026	-0.0455804	-0.139238	0.957446	-0.326883	0.894811	1.08489	1.5708	0	0	0.776166	-0.303106	0.668287	1.17294	1.5708	0	0
4.13	-0.188752	1.54783	1.82772	0.576275	0.800236	1.01882	0.514648	-0.108404	-0.164797	0.427592	-0.12847	0	0	-0.251287	0.0669944	-0.13749	0	-0.362342	0	0	-0.185093	-0.0423006	-0.142892	0.956702	-0.327916	0.899352	1.08792	1.5708	0	0	0.770275	-0.304242	0.665033	1.17623	1.5708	0	0
4.14	-0.174679	1.54751	1.81766	0.576403	0.807349	1.01759	0.513343	-0.108045	-0.156515	0.427854	-0.130343	0	0	-0.258074	0.0647592	-0.135686	0	-0.357491	0	0	-0.180196	-0.0389055	-0.146602	0.955902	-0.329113	0.904323	1.09115	1.5708	0	0	0.764285	-0.305569	0.661999	1.17949	1.5708	0	0
4.15	-0.151203	1.54722	1.79783	0.57658	0.814548	1.01629	0.51313	-0.107438	-0.147511	0.434578	-0.134425	0	0	-0.264747	0.0623368	-0.134753	0	-0.346197	0	0	-0.174876	-0.0331896	-0.154146	0.960958	-0.326366	0.919344	1.09041	1.5708	0	0	0.75242	-0.310029	0.649822	1.18751	1.5708	0	0
4.16	-0.136713	1.54695	1.78728	0.576827	0.821852	1.015	0.513434	-0.107292	-0.140171	0.446207	-0.138275	0	0	-0.271278	0.0599108	-0.134379	0	-0.341061	0	0	-0.16961	-0.0295909	-0.15855	0.960766	-0.327045	0.926182	1.09346	1.5708	0	0	0.744939	-0.312246	0.64496	1.19202	1.5708	0	0
4.17	-0.113864	1.54674	1.76862	0.577177	0.829273	1.01372	0.513654	-0.106998	-0.134159	0.461137	-0.143268	0	0	-0.277664	0.0569861	-0.134541	0	-0.336181	0	0	-0.164447	-0.0259299	-0.163326	0.9604	-0.327364	0.932898	1.09661	1.5708	0	0	0.736947	-0.314789	0.639692	1.19724	1.5708	0	0
4.18	-0.081678	1.54704	1.74088	0.57762	0.836849	1.01248	0.512546	-0.106077	-0.129223	0.477278	-0.148739	0	0	-0.285063	0.0535395	-0.134894	0	-0.332224	0	0	-0.159755	-0.0221772	-0.168289	0.959838	-0.32755	0.93906	1.09991	1.5708	0	0	0.728937	-0.317574	0.634637	1.20284	1.5708	0	0
4.19	-0.0375786	1.54796	1.70163	0.578139	0.844606	1.0113	0.509414	-0.104439	-0.125832	0.493246	-0.153606	0	0	-0.293557	0.0494848	-0.13569	0	-0.328259	0	0	-0.155356	-0.0184152	-0.172789	0.958266	-0.328282	0.943483	1.10368	1.5708	0	0	0.722135	-0.320212	0.63157	1.20752	1.5708	0	0
4.2	0.0210809	1.54947	1.64831	0.578647	0.852496	1.01018	0.505561	-0.102965	-0.126301	0.51111	-0.160347	0	0	-0.302875	0.0449158	-0.136778	0	-0.325667	0	0	-0.151366	-0.0120504	-0.182438	0.962998	-0.323912	0.957798	1.10263	1.5708	0	0	0.709292	-0.32615	0.619336	1.21742	1.5708	0	0
4.21	0.104811	1.55037	1.57037	0.579265	0.860477	1.00913	0.50309	-0.10189	-0.130058	0.527928	-0.166399	0	0	-0.311739	0.0396768	-0.137344	0	-0.3235	0	0	-0.146457	-0.0069683	-0.189168	0.962828	-0.322444	0.965141	1.10417	1.5708	0	0	0.700436	-0.32979	0.613775	1.2231	1.5708	0	0
4.22	0.234653	1.55045	1.44628	0.580011	0.868458	1.00825	0.502873	-0.100861	-0.135878	0.540581	-0.175622	0	0	-0.319749	0.0333693	-0.137474	0	-0.32188	0	0	-0.141524	-0.00141978	-0.195533	0.961714	-0.321204	0.971017	1.10649	1.5708	0	0	0.691424	-0.333149	0.607952	1.22874	1.5708	0	0
4.23	0.424195	1.54993	1.26221	0.580879	0.876448	1.00766	0.50277	-0.0984347	-0.143492	0.548014	-0.189237	0	0	-0.327728	0.0256422	-0.137458	0	-0.320954	0	0	-0.137432	0.00511917	-0.201363	0.959858	-0.320241	0.975534	1.10971	1.5708	0	0	0.682111	-0.33644	0.601791	1.23463	1.5708	0	0
4.24	0.648039	1.5485	1.04309	0.581838	0.884498	1.00735	0.501723	-0.0941138	-0.153426	0.55442	-0.207853	0	0	-0.335883	0.0170925	-0.138744	0	-0.32082	0	0	-0.134123	0.012379	-0.206201	0.957423	-0.319637	0.97943	1.1137	1.5708	0	0	0.672469	-0.339416	0.595449	1.2407	1.5708	0	0
4.25	0.849086	1.54563	0.845324	0.58284	0.892623	1.00722	0.50011	-0.0888794	-0.164698	0.562782	-0.229289	0	0	-0.343532	0.00870615	-0.142776	0.000999695	-0.321419	0	0	-0.130847	0.0200389	-0.209404	0.95414	-0.319813	0.982495	1.11861	1.5708	0	0	0.662293	-0.341451	0.588434	1.24673	1.5708	0	0
4.26	0.973167	1.54176	0.722508	0.583962	0.900755	1.00717	0.499243	-0.0835764	-0.172684	0.572781	-0.247358	0	0	-0.34972	0.00152604	-0.149494	0.00489023	-0.322596	0	0	-0.126574	0.0270758	-0.210588	0.950197	-0.320151	0.985281	1.12326	1.5708	0	0	0.651946	-0.34291	0.581657	1.25215	1.5708	0	0
4.27	1.02917	1.53752	0.665933	0.585284	0.908893	1.00716	0.500469	-0.0784843	-0.175237	0.585165	-0.257325	0	0	-0.354416	-0.00443956	-0.157582	0.00950186	-0.324511	0	0	-0.120892	0.0331158	-0.21019	0.945686	-0.31985	0.988078	1.12674	1.5708	0	0	0.641472	-0.344366	0.575392	1.25666	1.5708	0	0
4.28	1.05656	1.53334	0.636618	0.586834	0.917022	1.00724	0.503006	-0.0726226	-0.170892	0.600152	-0.260076	0	0	-0.357523	-0.00989109	-0.167518	0.016467	-0.326578	0	0	-0.114834	0.0385732	-0.208803	0.941298	-0.318848	0.991461	1.12935	1.5708	0	0	0.630724	-0.345893	0.568799	1.26081	1.5708	0	0
4.29	1.09299	1.52949	0.59775	0.588484	0.92514	1.00755	0.504312	-0.0651875	-0.160366	0.615848	-0.259072	0	0	-0.360329	-0.0155692	-0.178008	0.0255278	-0.329073	0	0	-0.109563	0.0444047	-0.207241	0.937599	-0.316919	0.99563	1.13042	1.5708	0	0	0.619911	-0.347606	0.562299	1.26455	1.5708	0	0
4.3	1.15168	1.52559	0.536423	0.590182	0.933245	1.00819	0.503032	-0.0556041	-0.145573	0.63009	-0.256789	0	0	-0.363366	-0.0222573	-0.188163	0.0366618	-0.331798	0	0	-0.10605	0.0511793	-0.205415	0.934413	-0.314862	0.99966	1.13114	1.5708	0	0	0.609621	-0.349329	0.556187	1.26811	1.5708	0	0
